<svg id="Capa_1" data-name="Capa 1" xmlns="http://www.w3.org/2000/svg" viewBox="0 0 452.55 466.1"><defs><style>.cls-1{fill:none;stroke:#1d1d1b;stroke-width:5px;}.cls-2{fill:#fd0e3a;}.cls-3,.cls-4{fill:#1d1d1b;}.cls-4{font-size:55px;font-family:Fidena;}</style></defs><circle class="cls-1" cx="200.28" cy="252.5" r="148.69"/><circle class="cls-2" cx="316.31" cy="136.36" r="58.95"/><path class="cls-1" d="M7383.61,7200c0,101.68-82.43,184.11-184.11,184.11a185.85,185.85,0,0,1-29.65-2.37c-87.58-14.18-154.46-90.15-154.46-181.74,0-101.68,82.43-184.11,184.11-184.11S7383.61,7098.32,7383.61,7200Z" transform="translate(-6999.22 -6947.5)"/><path class="cls-1" d="M7169.85,7381.74s-15.79-11-15.5-20.64,7.75-17.15,7.75-17.15,45.3-91.57,47.7-149.92-51.16-135.1-52-150.29,13.19-25.66,13.19-25.66" transform="translate(-6999.22 -6947.5)"/><path class="cls-1" d="M7053.05,7311.59s24.85-2.45,48-39.22,27-169.74,77.85-182.4" transform="translate(-6999.22 -6947.5)"/><path class="cls-1" d="M7029.84,7271.61s56.69-66.61,74.44-67.19,44,104.62,69.55,113.86c0,0-44.77-3.54-75.15-78.69s-71.5-104.56-71.5-104.56" transform="translate(-6999.22 -6947.5)"/><circle class="cls-3" cx="179.71" cy="142.47" r="8.39"/><circle class="cls-3" cx="174.55" cy="372.92" r="8.34"/><text class="cls-4" transform="translate(103.21 75.91) rotate(-23.79)">B</text><text class="cls-4" transform="translate(135.36 62.48) rotate(-17.81)">I</text><text class="cls-4" transform="matrix(0.99, -0.17, 0.17, 0.99, 141.05, 59.03)">O</text><text class="cls-4" transform="translate(188.1 50.57) rotate(3.54)">M</text><text class="cls-4" transform="translate(235.76 53.85) rotate(15.68)">A</text><text class="cls-4" transform="translate(266.66 61.48) rotate(25.86)">C</text><text class="cls-4" transform="matrix(0.82, 0.57, -0.57, 0.82, 306.87, 82)"> </text><text class="cls-4" transform="translate(322.81 93.11) rotate(40.53)"> </text><text class="cls-4" transform="matrix(0.69, 0.72, -0.72, 0.69, 337.62, 105.7)"> </text><text class="cls-4" transform="translate(351.13 119.64) rotate(51.56)"> </text><text class="cls-4" transform="translate(363.25 134.83) rotate(57.09)"> </text><text class="cls-4" transform="translate(374.08 150.61) rotate(64.49)">H</text><text class="cls-4" transform="translate(388.34 179.6) rotate(74.52)">A</text><text class="cls-4" transform="translate(398.21 215.85) rotate(84.29)">R</text><text class="cls-4" transform="translate(402.27 246.21) rotate(95.34)">M</text><text class="cls-4" transform="matrix(-0.33, 0.95, -0.95, -0.33, 398.12, 293.67)">O</text><text class="cls-4" transform="translate(382.22 338.85) rotate(121.15)">N</text><text class="cls-4" transform="matrix(-0.61, 0.79, -0.79, -0.61, 361.79, 371.07)">I</text><text class="cls-4" transform="matrix(-0.69, 0.72, -0.72, -0.69, 358.39, 376.91)">Z</text><text class="cls-4" transform="matrix(-0.8, 0.6, -0.6, -0.8, 333.47, 402.97)">E</text></svg>